<?xml version="1.0" encoding="UTF-8"?>
<!DOCTYPE svg PUBLIC "-//W3C//DTD SVG 1.1//EN" "http://www.w3.org/Graphics/SVG/1.1/DTD/svg11.dtd">
<svg xmlns="http://www.w3.org/2000/svg" version="1.1" width="2000px" height="1500px" style="shape-rendering:geometricPrecision; text-rendering:geometricPrecision; image-rendering:optimizeQuality; fill-rule:evenodd; clip-rule:evenodd" xmlns:xlink="http://www.w3.org/1999/xlink">
<g><path style="opacity:1" fill="#fefefe" d="M -0.5,-0.5 C 666.167,-0.5 1332.83,-0.5 1999.5,-0.5C 1999.5,499.5 1999.5,999.5 1999.5,1499.5C 1332.83,1499.5 666.167,1499.5 -0.5,1499.5C -0.5,999.5 -0.5,499.5 -0.5,-0.5 Z"/></g>
<g><path style="opacity:1" fill="#e56d90" d="M 1264.5,1125.5 C 1264.79,1127.74 1264.46,1129.74 1263.5,1131.5C 1259.34,1127.17 1255.34,1122.67 1251.5,1118C 1250.09,1117.68 1248.76,1118.02 1247.5,1119C 1238.73,1125.76 1230.57,1133.26 1223,1141.5C 1218.03,1147.47 1212.7,1153.14 1207,1158.5C 1205.99,1160.02 1205.49,1161.69 1205.5,1163.5C 1204.51,1167.97 1204.18,1172.64 1204.5,1177.5C 1202.83,1177.5 1201.17,1177.5 1199.5,1177.5C 1194.82,1177.33 1190.15,1177.5 1185.5,1178C 1181.11,1179.61 1178.77,1182.77 1178.5,1187.5C 1178.13,1192.09 1177.13,1196.43 1175.5,1200.5C 1174.08,1200.29 1172.74,1199.79 1171.5,1199C 1167.83,1194.67 1164.17,1190.33 1160.5,1186C 1158.47,1184.99 1156.3,1184.49 1154,1184.5C 1144.37,1186.08 1134.87,1188.24 1125.5,1191C 1122.67,1192.25 1120,1193.75 1117.5,1195.5C 1118.56,1198.1 1118.73,1200.77 1118,1203.5C 1113.84,1204.72 1109.68,1204.55 1105.5,1203C 1095.32,1196.41 1084.32,1191.74 1072.5,1189C 1064.73,1187.79 1057.23,1188.62 1050,1191.5C 1024.39,1183.94 998.22,1181.1 971.5,1183C 951.389,1183.73 931.389,1185.56 911.5,1188.5C 911.826,1184.12 911.492,1179.78 910.5,1175.5C 907.628,1178.15 904.295,1178.98 900.5,1178C 893.505,1172.83 886.172,1168.17 878.5,1164C 861.833,1155.33 845.167,1146.67 828.5,1138C 805.126,1138.75 784.793,1131.42 767.5,1116C 764.167,1114.67 760.833,1113.33 757.5,1112C 745.203,1110.82 732.87,1110.16 720.5,1110C 698.059,1103.56 682.559,1089.4 674,1067.5C 670.237,1057.45 667.571,1047.12 666,1036.5C 663.741,1027.07 657.908,1021.73 648.5,1020.5C 642.757,1000.01 635.59,980.009 627,960.5C 615.194,933.417 603.194,906.417 591,879.5C 584.636,866.911 581.469,853.578 581.5,839.5C 581.833,835.167 582.167,830.833 582.5,826.5C 585.937,828.078 589.104,827.745 592,825.5C 593.504,821.961 593.837,818.295 593,814.5C 590.047,797.022 585.381,780.022 579,763.5C 571.494,745.656 563.327,728.156 554.5,711C 558.963,682.422 563.797,653.922 569,625.5C 574.164,598.179 585.497,573.846 603,552.5C 622.025,534.474 640.692,516.141 659,497.5C 661.503,494.498 663.503,491.165 665,487.5C 667.355,478.768 670.688,470.435 675,462.5C 701.289,434.873 728.789,408.706 757.5,384C 762.001,381.5 766.834,380.333 772,380.5C 782.815,382.25 793.649,382.583 804.5,381.5C 811.086,361.749 824.419,348.916 844.5,343C 851.843,342.796 859.176,342.796 866.5,343C 870.844,340.829 874.844,338.163 878.5,335C 884.531,328.634 890.864,322.634 897.5,317C 900.379,316.043 902.879,316.543 905,318.5C 905.38,323.563 904.88,328.563 903.5,333.5C 903.833,334.167 904.167,334.833 904.5,335.5C 914.841,327.992 925.841,321.492 937.5,316C 955.764,308.245 974.264,301.078 993,294.5C 995.706,295.89 998.539,297.056 1001.5,298C 1007.22,302.721 1013.22,307.054 1019.5,311C 1022.56,311.741 1025.56,311.575 1028.5,310.5C 1029.66,317.811 1029.83,325.144 1029,332.5C 1026.95,339.219 1022.45,343.052 1015.5,344C 958.994,340.301 906.327,352.635 857.5,381C 830.502,396.497 803.835,412.497 777.5,429C 746.333,456.167 717.167,485.333 690,516.5C 667.447,545.278 652.114,577.611 644,613.5C 638.197,655.392 633.197,697.392 629,739.5C 625.939,746.621 622.606,753.621 619,760.5C 618.137,763.269 617.637,766.102 617.5,769C 621.181,791.097 624.014,813.263 626,835.5C 618.26,832.219 614.593,834.886 615,843.5C 615.936,848.738 618.77,852.404 623.5,854.5C 625.747,853.594 627.747,852.261 629.5,850.5C 629.833,850.833 630.167,851.167 630.5,851.5C 639.042,871.957 647.875,892.29 657,912.5C 661.95,919.784 667.283,926.784 673,933.5C 690.138,951.638 707.638,969.472 725.5,987C 754.469,1013.63 783.135,1040.63 811.5,1068C 817.57,1067.32 823.57,1065.98 829.5,1064C 832,1062.83 833.833,1061 835,1058.5C 836.772,1061.4 836.772,1064.4 835,1067.5C 832.408,1070.76 829.241,1073.26 825.5,1075C 858.573,1096.35 894.907,1106.35 934.5,1105C 960.395,1108.68 986.061,1113.51 1011.5,1119.5C 1030.55,1114.76 1049.89,1111.93 1069.5,1111C 1070.83,1110.33 1072.17,1109.67 1073.5,1109C 1077.06,1104.94 1081.06,1101.44 1085.5,1098.5C 1086.56,1094.22 1087.4,1089.88 1088,1085.5C 1088.96,1086.58 1089.79,1087.75 1090.5,1089C 1091.45,1089.62 1092.28,1089.45 1093,1088.5C 1093.11,1083.97 1092.45,1079.64 1091,1075.5C 1096.1,1080.6 1100.43,1086.26 1104,1092.5C 1105.46,1089.05 1107.63,1086.22 1110.5,1084C 1111.64,1083.25 1112.64,1083.42 1113.5,1084.5C 1114.1,1085.79 1114.6,1087.13 1115,1088.5C 1115.47,1083.89 1116.3,1079.39 1117.5,1075C 1118.45,1074.38 1119.28,1074.55 1120,1075.5C 1120.91,1077.66 1122.08,1079.66 1123.5,1081.5C 1125.59,1078.44 1127.59,1075.27 1129.5,1072C 1134.83,1071.33 1140.17,1071.33 1145.5,1072C 1142.93,1080.09 1145.59,1082.76 1153.5,1080C 1156.98,1077.35 1160.31,1074.52 1163.5,1071.5C 1165.36,1075.04 1168.03,1077.88 1171.5,1080C 1177.67,1080.95 1183.34,1079.61 1188.5,1076C 1245.19,1038.74 1300.03,998.903 1353,956.5C 1353.33,960.5 1353.67,964.5 1354,968.5C 1355.34,962.981 1357.17,957.648 1359.5,952.5C 1363.08,954.877 1366.75,955.043 1370.5,953C 1380.16,936.674 1392.66,922.841 1408,911.5C 1389.01,967.159 1360.01,1016.83 1321,1060.5C 1319.49,1064.7 1318.49,1069.03 1318,1073.5C 1316.66,1079.38 1313.16,1083.22 1307.5,1085C 1301.5,1085.33 1295.5,1085.67 1289.5,1086C 1282.46,1088.09 1280.79,1092.26 1284.5,1098.5C 1284.17,1098.83 1283.83,1099.17 1283.5,1099.5C 1278.47,1095.74 1272.8,1094.58 1266.5,1096C 1261.11,1097.79 1255.94,1099.95 1251,1102.5C 1252.68,1107.22 1255.68,1111.22 1260,1114.5C 1262.07,1117.97 1263.57,1121.64 1264.5,1125.5 Z"/></g>
<g><path style="opacity:1" fill="#e56d90" d="M 1134.5,323.5 C 1199.01,323.275 1255.34,344.441 1303.5,387C 1310.03,393.198 1316.2,399.698 1322,406.5C 1353,455.833 1384,505.167 1415,554.5C 1417.34,575.877 1420.01,597.21 1423,618.5C 1424.75,637.127 1425.59,655.793 1425.5,674.5C 1427.31,674.509 1428.98,674.009 1430.5,673C 1433.12,668.717 1436.12,664.717 1439.5,661C 1440.88,659.759 1442.21,659.592 1443.5,660.5C 1438.77,671.403 1435.27,682.737 1433,694.5C 1429.48,714.05 1426.81,733.717 1425,753.5C 1423.09,745.955 1422.26,738.289 1422.5,730.5C 1423.04,716.056 1424.21,701.722 1426,687.5C 1423.42,693.057 1419.59,694.39 1414.5,691.5C 1413.14,686.199 1411.97,680.866 1411,675.5C 1392.59,661.189 1379.42,643.023 1371.5,621C 1381.1,596.472 1374.77,577.472 1352.5,564C 1347.52,560.03 1343.69,555.197 1341,549.5C 1335.27,536.629 1330.93,523.296 1328,509.5C 1327.31,503.796 1327.48,498.13 1328.5,492.5C 1321.79,495.849 1314.79,498.683 1307.5,501C 1305.17,501.667 1302.83,501.667 1300.5,501C 1269.32,479.246 1238.32,457.246 1207.5,435C 1184.63,419.145 1160.96,404.478 1136.5,391C 1114.01,391.299 1093.68,384.966 1075.5,372C 1066.88,365.59 1063.04,357.09 1064,346.5C 1068.04,337.144 1075.21,332.644 1085.5,333C 1093.12,331.765 1100.45,332.599 1107.5,335.5C 1109.98,331.19 1113.31,327.69 1117.5,325C 1123.35,324.827 1129.01,324.327 1134.5,323.5 Z"/></g>
<g><path style="opacity:1" fill="#e56d90" d="M 1131.5,561.5 C 1099.17,561.5 1066.83,561.5 1034.5,561.5C 1034.5,686.833 1034.5,812.167 1034.5,937.5C 1066.83,937.5 1099.17,937.5 1131.5,937.5C 1131.5,958.167 1131.5,978.833 1131.5,999.5C 1043.17,999.5 954.833,999.5 866.5,999.5C 866.5,978.833 866.5,958.167 866.5,937.5C 898.833,937.5 931.167,937.5 963.5,937.5C 963.5,812.167 963.5,686.833 963.5,561.5C 931.167,561.5 898.833,561.5 866.5,561.5C 866.5,540.833 866.5,520.167 866.5,499.5C 954.833,499.5 1043.17,499.5 1131.5,499.5C 1131.5,520.167 1131.5,540.833 1131.5,561.5 Z"/></g>
<g><path style="opacity:1" fill="#f8e2e8" d="M 866.5,561.5 C 898.833,561.5 931.167,561.5 963.5,561.5C 963.5,686.833 963.5,812.167 963.5,937.5C 931.167,937.5 898.833,937.5 866.5,937.5C 898.329,936.502 930.329,936.168 962.5,936.5C 962.5,811.833 962.5,687.167 962.5,562.5C 930.329,562.832 898.329,562.498 866.5,561.5 Z"/></g>
<g><path style="opacity:1" fill="#f8e2e8" d="M 1131.5,561.5 C 1099.67,562.498 1067.67,562.832 1035.5,562.5C 1035.5,687.167 1035.5,811.833 1035.5,936.5C 1067.67,936.168 1099.67,936.502 1131.5,937.5C 1099.17,937.5 1066.83,937.5 1034.5,937.5C 1034.5,812.167 1034.5,686.833 1034.5,561.5C 1066.83,561.5 1099.17,561.5 1131.5,561.5 Z"/></g>
<g><path style="opacity:1" fill="#fdf5f7" d="M 624.5,872.5 C 627.263,872.744 629.429,874.077 631,876.5C 635.509,887.078 640.176,897.412 645,907.5C 640.625,905.812 636.958,903.145 634,899.5C 633,894.833 632,890.167 631,885.5C 628.807,881.114 626.64,876.78 624.5,872.5 Z"/></g>
<g><path style="opacity:1" fill="#fcf2f5" d="M 613.5,873.5 C 615.911,873.137 617.411,874.137 618,876.5C 619.98,881.755 621.314,887.088 622,892.5C 618.487,887.657 614.987,882.824 611.5,878C 611.519,876.167 612.185,874.667 613.5,873.5 Z"/></g>
<g><path style="opacity:1" fill="#eea6bb" d="M 1264.5,1125.5 C 1265.8,1127.69 1265.8,1130.03 1264.5,1132.5C 1263.89,1132.38 1263.56,1132.04 1263.5,1131.5C 1264.46,1129.74 1264.79,1127.74 1264.5,1125.5 Z"/></g>
<g><path style="opacity:1" fill="#eea6bb" d="M 1205.5,1163.5 C 1205.5,1168.5 1205.5,1173.5 1205.5,1178.5C 1203.26,1178.79 1201.26,1178.46 1199.5,1177.5C 1201.17,1177.5 1202.83,1177.5 1204.5,1177.5C 1204.18,1172.64 1204.51,1167.97 1205.5,1163.5 Z"/></g>
<g><path style="opacity:1" fill="#eea7bb" d="M 1178.5,1187.5 C 1178.5,1192.17 1178.5,1196.83 1178.5,1201.5C 1177.21,1201.74 1176.21,1201.4 1175.5,1200.5C 1177.13,1196.43 1178.13,1192.09 1178.5,1187.5 Z"/></g>
</svg>
